<?xml version="1.0" encoding="utf-8"?>
<!-- Generator: Adobe Illustrator 18.0.0, SVG Export Plug-In . SVG Version: 6.00 Build 0)  -->
<!DOCTYPE svg PUBLIC "-//W3C//DTD SVG 1.1//EN" "http://www.w3.org/Graphics/SVG/1.1/DTD/svg11.dtd">
<svg version="1.1" xmlns="http://www.w3.org/2000/svg" xmlns:xlink="http://www.w3.org/1999/xlink" x="0px" y="0px"
	 viewBox="0 0 3000 3000" style="enable-background:new 0 0 3000 3000;" xml:space="preserve">
<style type="text/css">
	.st0{fill:#00F6FF;}
	.st1{fill:#FF0000;}
</style>
<g id="Layer_4">
	<g>
		<path class="st0" d="M1262.7,1007c14.6-70.9,32.6-144.7,54.5-222.5c-266.3,21-515.8,110.1-734.7,251.7
			c242.5,281.2,438.1,456.1,629.9,587.2c-3.5-102.2-2.1-196.6,4.4-287.7C1224.5,1227.2,1239.5,1119.7,1262.7,1007z"/>
		<path class="st0" d="M1486.6,1816.1c-98.4,47.6-199.6,88.4-309.4,124.8c-127.3,42.2-269.3,79.3-432.7,112.7
			c212.4,105.5,447.6,164.1,695.1,164.1c68.1,0,135.3-4.4,201.3-13.1c56.6-202.4,86-371.4,98.5-528.6
			C1652.2,1730.2,1569.3,1776.2,1486.6,1816.1z"/>
		<path class="st0" d="M2198.5,977.3c-286.9,61.7-496.5,133.3-676.7,218.7c90.8,48.1,172.3,96.5,248.5,147.7
			c90.7,60.9,176.8,127.6,263.4,203.9c110.7,97.6,224.8,213.5,348.7,354.7c150-110.7,283.6-247,395.6-403.4
			C2622,1281,2424.3,1102.1,2198.5,977.3z"/>
		<path class="st0" d="M1495.8,1180.8c98.4-47.6,199.6-88.4,309.4-124.8c107.9-35.7,226.2-67.8,359.2-97.1
			c-220.1-115-465.6-179.2-724.6-179.2c-32.1,0-63.9,1-95.6,2.9c-58.4,206.6-88.5,378.5-101.2,538.2
			C1330.2,1266.7,1413.1,1220.8,1495.8,1180.8z"/>
		<path class="st0" d="M708.8,2035.3c326.1-65.1,556.4-141.6,751.9-234.3c-90.8-48.1-172.3-96.5-248.5-147.7
			c-90.7-60.9-176.8-127.6-263.4-203.9c-122.1-107.7-248.5-237.6-387.5-399.3c-176.3,117.9-332.1,270.2-459.9,448.6
			C263.8,1725.4,471.3,1909.9,708.8,2035.3z"/>
		<path class="st0" d="M1770.1,1373.5c3.5,102.2,2.1,196.6-4.4,287.7c-7.7,108.5-22.8,216.1-46,328.7
			c-13.9,67.4-30.9,137.4-51.2,210.9c252.7-37.7,488-136.9,693.4-283.8C2136.8,1661.2,1951.7,1497.7,1770.1,1373.5z"/>
	</g>
</g>
<g id="Layer_5">
	<g>
		<path class="st1" d="M1287.4,1002.4c14.2-69.3,31.6-141.4,52.6-217.2c-257.1,35.7-496.6,135-705.8,283.4
			c229.7,263.5,417.9,431.2,602.5,558.1c-3.6-103.5-2.1-199.1,4.4-291.4C1248.9,1225.4,1264.1,1116.5,1287.4,1002.4z"/>
		<path class="st1" d="M1747.6,1998c-14.5,71-32.5,144.9-54.1,222.8c265.8-24,514.6-115.7,732.8-259.8
			c-241.3-280.5-436.5-455.8-627.9-587.4c3.6,103.5,2.1,199.1-4.4,291.4C1786.1,1775,1770.9,1883.9,1747.6,1998z"/>
		<path class="st1" d="M1512.9,1821.9c-99.1,48.2-201,89.6-311.5,126.4c-111.2,37.1-233.4,70.2-371.2,100.5
			c220,114.4,465.1,178.3,723.4,178.3c37.8,0,75.4-1.4,112.6-4.1c58.4-208.3,88.6-381.7,101.3-542.9
			C1679.6,1734.9,1596.1,1781.4,1512.9,1821.9z"/>
		<path class="st1" d="M2295.4,958.4c-323.2,65.5-552.3,142.4-747.1,235.3c91.4,48.7,173.5,97.7,250.2,149.6
			c91.3,61.7,178.1,129.3,265.2,206.6c121.1,107.4,246.3,236.7,383.8,397c173.7-118.5,327.3-270.5,453.7-448
			C2738.9,1271,2532.1,1085.3,2295.4,958.4z"/>
		<path class="st1" d="M2259.6,939.8c-215.5-108.8-454.5-169.3-706-169.3c-62.9,0-124.9,3.8-186.1,11.2
			c-57.6,206.4-87.4,378.5-100.1,538.7c87.9-54.9,171.4-101.4,254.6-141.9c99.1-48.2,201-89.6,311.5-126.4
			C1959.3,1010.1,2099.1,973.2,2259.6,939.8z"/>
		<path class="st1" d="M795.5,2030.2c294-63,507.8-136.2,691.1-223.6c-91.4-48.7-173.5-97.7-250.2-149.6
			c-91.3-61.7-178.1-129.3-265.2-206.6c-113.5-100.6-230.5-220.5-357.9-367c-154.7,113.3-292.3,253.7-407.3,415.2
			C364.6,1721.2,565.7,1903.6,795.5,2030.2z"/>
	</g>
</g>
<g id="Layer_2">
	<g>
		<path d="M1502.6,1829.5c-98.9,48.1-200.6,89.4-310.8,126.1c-114.1,38-239.8,71.9-382,102.8c211.6,105.2,445.7,163.6,691.9,163.6
			c45.4,0,90.3-2,134.8-5.9c55.3-196.7,85.2-361.8,98.9-515C1655.5,1750.2,1578.9,1792.4,1502.6,1829.5z"/>
		<path d="M2263.2,975.8c-300.4,61.7-518,133.5-703.1,219.4c82.5,44.7,157.3,89.9,227.6,137.4c91.1,61.6,177.7,129,264.6,206.1
			c117.2,103.9,238.1,228.3,370.4,381.6c158.8-114,299.7-256.7,417.1-421.5C2684.4,1280.6,2487.8,1101.3,2263.2,975.8z"/>
		<path d="M1261,1001.9c14-68.6,31.3-139.9,51.9-214.8c-250.5,30.9-484.7,122.4-690.8,261.3c224.2,258.8,408.2,425.5,587.5,551.6
			c-2.5-93.8-0.8-181.2,5.2-265.8C1222.6,1224.4,1237.7,1115.8,1261,1001.9z"/>
		<path d="M1500.8,1168c98.9-48.1,200.6-89.4,310.8-126.1c114.1-38,239.8-71.9,382-102.8c-211.6-105.2-445.7-163.6-691.9-163.6
			c-45.4,0-90.3,2-134.8,5.9c-55.3,196.7-85.2,361.8-98.9,515C1347.9,1247.3,1424.5,1205.1,1500.8,1168z"/>
		<path d="M740.2,2021.7c300.4-61.7,518-133.5,703.1-219.4c-82.5-44.7-157.3-89.9-227.6-137.4c-91.1-61.6-177.7-129-264.6-206.1
			c-117.2-103.9-238.1-228.3-370.4-381.6c-158.8,114-299.7,256.7-417.1,421.5C318.9,1716.9,515.6,1896.2,740.2,2021.7z"/>
		<path d="M1793.8,1397.5c2.5,93.8,0.8,181.2-5.2,265.8c-7.8,109.7-22.9,218.4-46.2,332.2c-14,68.6-31.3,139.9-51.9,214.8
			c250.5-30.9,484.7-122.4,690.8-261.3C2157.1,1690.3,1973.1,1523.6,1793.8,1397.5z"/>
	</g>
</g>
</svg>
